<?xml version="1.0" encoding="UTF-8" standalone="no"?>
<!DOCTYPE svg PUBLIC "-//W3C//DTD SVG 1.1//EN"
 "http://www.w3.org/Graphics/SVG/1.1/DTD/svg11.dtd">
<!-- Generated by graphviz version 2.40.1 (20161225.0304)
 -->
<!-- Title: snakemake_dag Pages: 1 -->
<svg width="734pt" height="476pt"
 viewBox="0.00 0.00 734.31 476.00" xmlns="http://www.w3.org/2000/svg" xmlns:xlink="http://www.w3.org/1999/xlink">
<g id="graph0" class="graph" transform="scale(1 1) rotate(0) translate(4 472)">
<title>snakemake_dag</title>
<polygon fill="#ffffff" stroke="transparent" points="-4,4 -4,-472 730.308,-472 730.308,4 -4,4"/>
<!-- 0 -->
<g id="node1" class="node">
<title>0</title>
<path fill="none" stroke="#d8cb56" stroke-width="2" d="M425.808,-36C425.808,-36 395.808,-36 395.808,-36 389.808,-36 383.808,-30 383.808,-24 383.808,-24 383.808,-12 383.808,-12 383.808,-6 389.808,0 395.808,0 395.808,0 425.808,0 425.808,0 431.808,0 437.808,-6 437.808,-12 437.808,-12 437.808,-24 437.808,-24 437.808,-30 431.808,-36 425.808,-36"/>
<text text-anchor="middle" x="410.808" y="-15.5" font-family="sans" font-size="10.00" fill="#000000">all</text>
</g>
<!-- 1 -->
<g id="node2" class="node">
<title>1</title>
<path fill="none" stroke="#567bd8" stroke-width="2" d="M497.808,-108C497.808,-108 467.808,-108 467.808,-108 461.808,-108 455.808,-102 455.808,-96 455.808,-96 455.808,-84 455.808,-84 455.808,-78 461.808,-72 467.808,-72 467.808,-72 497.808,-72 497.808,-72 503.808,-72 509.808,-78 509.808,-84 509.808,-84 509.808,-96 509.808,-96 509.808,-102 503.808,-108 497.808,-108"/>
<text text-anchor="middle" x="482.808" y="-87.5" font-family="sans" font-size="10.00" fill="#000000">counts</text>
</g>
<!-- 1&#45;&gt;0 -->
<g id="edge1" class="edge">
<title>1&#45;&gt;0</title>
<path fill="none" stroke="#c0c0c0" stroke-width="2" d="M464.6394,-71.8314C456.0928,-63.2848 445.7523,-52.9443 436.4279,-43.6198"/>
<polygon fill="#c0c0c0" stroke="#c0c0c0" stroke-width="2" points="438.7673,-41.0095 429.2213,-36.4133 433.8175,-45.9592 438.7673,-41.0095"/>
</g>
<!-- 2 -->
<g id="node3" class="node">
<title>2</title>
<path fill="none" stroke="#68d856" stroke-width="2" d="M242.308,-180C242.308,-180 157.308,-180 157.308,-180 151.308,-180 145.308,-174 145.308,-168 145.308,-168 145.308,-156 145.308,-156 145.308,-150 151.308,-144 157.308,-144 157.308,-144 242.308,-144 242.308,-144 248.308,-144 254.308,-150 254.308,-156 254.308,-156 254.308,-168 254.308,-168 254.308,-174 248.308,-180 242.308,-180"/>
<text text-anchor="middle" x="199.808" y="-159.5" font-family="sans" font-size="10.00" fill="#000000">remove_duplicates</text>
</g>
<!-- 2&#45;&gt;1 -->
<g id="edge10" class="edge">
<title>2&#45;&gt;1</title>
<path fill="none" stroke="#c0c0c0" stroke-width="2" d="M254.5809,-146.9737C258.7107,-145.9362 262.8207,-144.9333 266.808,-144 343.1423,-126.1327 367.7264,-133.8106 445.8201,-107.8689"/>
<polygon fill="#c0c0c0" stroke="#c0c0c0" stroke-width="2" points="447.2772,-111.0703 455.6161,-104.5347 445.0216,-104.4436 447.2772,-111.0703"/>
</g>
<!-- 22 -->
<g id="node23" class="node">
<title>22</title>
<path fill="none" stroke="#56d892" stroke-width="2" d="M255.808,-108C255.808,-108 143.808,-108 143.808,-108 137.808,-108 131.808,-102 131.808,-96 131.808,-96 131.808,-84 131.808,-84 131.808,-78 137.808,-72 143.808,-72 143.808,-72 255.808,-72 255.808,-72 261.808,-72 267.808,-78 267.808,-84 267.808,-84 267.808,-96 267.808,-96 267.808,-102 261.808,-108 255.808,-108"/>
<text text-anchor="middle" x="199.808" y="-87.5" font-family="sans" font-size="10.00" fill="#000000">run_correlation_analysis</text>
</g>
<!-- 2&#45;&gt;22 -->
<g id="edge34" class="edge">
<title>2&#45;&gt;22</title>
<path fill="none" stroke="#c0c0c0" stroke-width="2" d="M199.808,-143.8314C199.808,-136.131 199.808,-126.9743 199.808,-118.4166"/>
<polygon fill="#c0c0c0" stroke="#c0c0c0" stroke-width="2" points="203.3081,-118.4132 199.808,-108.4133 196.3081,-118.4133 203.3081,-118.4132"/>
</g>
<!-- 23 -->
<g id="node24" class="node">
<title>23</title>
<path fill="none" stroke="#56d86b" stroke-width="2" d="M101.308,-108C101.308,-108 46.308,-108 46.308,-108 40.308,-108 34.308,-102 34.308,-96 34.308,-96 34.308,-84 34.308,-84 34.308,-78 40.308,-72 46.308,-72 46.308,-72 101.308,-72 101.308,-72 107.308,-72 113.308,-78 113.308,-84 113.308,-84 113.308,-96 113.308,-96 113.308,-102 107.308,-108 101.308,-108"/>
<text text-anchor="middle" x="73.808" y="-87.5" font-family="sans" font-size="10.00" fill="#000000">make_bigwig</text>
</g>
<!-- 2&#45;&gt;23 -->
<g id="edge37" class="edge">
<title>2&#45;&gt;23</title>
<path fill="none" stroke="#c0c0c0" stroke-width="2" d="M168.0129,-143.8314C151.7475,-134.5368 131.7694,-123.1208 114.403,-113.1971"/>
<polygon fill="#c0c0c0" stroke="#c0c0c0" stroke-width="2" points="116.0119,-110.0854 105.593,-108.1628 112.5389,-116.1631 116.0119,-110.0854"/>
</g>
<!-- 3 -->
<g id="node4" class="node">
<title>3</title>
<path fill="none" stroke="#d85656" stroke-width="2" d="M222.808,-252C222.808,-252 176.808,-252 176.808,-252 170.808,-252 164.808,-246 164.808,-240 164.808,-240 164.808,-228 164.808,-228 164.808,-222 170.808,-216 176.808,-216 176.808,-216 222.808,-216 222.808,-216 228.808,-216 234.808,-222 234.808,-228 234.808,-228 234.808,-240 234.808,-240 234.808,-246 228.808,-252 222.808,-252"/>
<text text-anchor="middle" x="199.808" y="-231.5" font-family="sans" font-size="10.00" fill="#000000">map_reads</text>
</g>
<!-- 3&#45;&gt;2 -->
<g id="edge13" class="edge">
<title>3&#45;&gt;2</title>
<path fill="none" stroke="#c0c0c0" stroke-width="2" d="M199.808,-215.8314C199.808,-208.131 199.808,-198.9743 199.808,-190.4166"/>
<polygon fill="#c0c0c0" stroke="#c0c0c0" stroke-width="2" points="203.3081,-190.4132 199.808,-180.4133 196.3081,-190.4133 203.3081,-190.4132"/>
</g>
<!-- 4 -->
<g id="node5" class="node">
<title>4</title>
<path fill="none" stroke="#d87d56" stroke-width="2" stroke-dasharray="5,2" d="M241.808,-324C241.808,-324 157.808,-324 157.808,-324 151.808,-324 145.808,-318 145.808,-312 145.808,-312 145.808,-300 145.808,-300 145.808,-294 151.808,-288 157.808,-288 157.808,-288 241.808,-288 241.808,-288 247.808,-288 253.808,-294 253.808,-300 253.808,-300 253.808,-312 253.808,-312 253.808,-318 247.808,-324 241.808,-324"/>
<text text-anchor="middle" x="199.808" y="-303.5" font-family="sans" font-size="10.00" fill="#000000">rm_abundant_rnas</text>
</g>
<!-- 4&#45;&gt;3 -->
<g id="edge14" class="edge">
<title>4&#45;&gt;3</title>
<path fill="none" stroke="#c0c0c0" stroke-width="2" d="M199.808,-287.8314C199.808,-280.131 199.808,-270.9743 199.808,-262.4166"/>
<polygon fill="#c0c0c0" stroke="#c0c0c0" stroke-width="2" points="203.3081,-262.4132 199.808,-252.4133 196.3081,-262.4133 203.3081,-262.4132"/>
</g>
<!-- 5 -->
<g id="node6" class="node">
<title>5</title>
<path fill="none" stroke="#56d0d8" stroke-width="2" stroke-dasharray="5,2" d="M123.808,-396C123.808,-396 93.808,-396 93.808,-396 87.808,-396 81.808,-390 81.808,-384 81.808,-384 81.808,-372 81.808,-372 81.808,-366 87.808,-360 93.808,-360 93.808,-360 123.808,-360 123.808,-360 129.808,-360 135.808,-366 135.808,-372 135.808,-372 135.808,-384 135.808,-384 135.808,-390 129.808,-396 123.808,-396"/>
<text text-anchor="middle" x="108.808" y="-375.5" font-family="sans" font-size="10.00" fill="#000000">trim</text>
</g>
<!-- 5&#45;&gt;4 -->
<g id="edge15" class="edge">
<title>5&#45;&gt;4</title>
<path fill="none" stroke="#c0c0c0" stroke-width="2" d="M131.7712,-359.8314C142.9795,-350.9632 156.6289,-340.1637 168.752,-330.5718"/>
<polygon fill="#c0c0c0" stroke="#c0c0c0" stroke-width="2" points="171.1817,-333.1125 176.8522,-324.1628 166.8383,-327.6229 171.1817,-333.1125"/>
</g>
<!-- 18 -->
<g id="node19" class="node">
<title>18</title>
<path fill="none" stroke="#56a9d8" stroke-width="2" stroke-dasharray="5,2" d="M68.808,-324C68.808,-324 38.808,-324 38.808,-324 32.808,-324 26.808,-318 26.808,-312 26.808,-312 26.808,-300 26.808,-300 26.808,-294 32.808,-288 38.808,-288 38.808,-288 68.808,-288 68.808,-288 74.808,-288 80.808,-294 80.808,-300 80.808,-300 80.808,-312 80.808,-312 80.808,-318 74.808,-324 68.808,-324"/>
<text text-anchor="middle" x="53.808" y="-303.5" font-family="sans" font-size="10.00" fill="#000000">fastqc</text>
</g>
<!-- 5&#45;&gt;18 -->
<g id="edge29" class="edge">
<title>5&#45;&gt;18</title>
<path fill="none" stroke="#c0c0c0" stroke-width="2" d="M94.9292,-359.8314C88.5945,-351.5386 80.9696,-341.557 74.0154,-332.4533"/>
<polygon fill="#c0c0c0" stroke="#c0c0c0" stroke-width="2" points="76.7255,-330.2353 67.8737,-324.4133 71.1628,-334.4847 76.7255,-330.2353"/>
</g>
<!-- 6 -->
<g id="node7" class="node">
<title>6</title>
<path fill="none" stroke="#b6d856" stroke-width="2" stroke-dasharray="5,2" d="M123.308,-468C123.308,-468 40.308,-468 40.308,-468 34.308,-468 28.308,-462 28.308,-456 28.308,-456 28.308,-444 28.308,-444 28.308,-438 34.308,-432 40.308,-432 40.308,-432 123.308,-432 123.308,-432 129.308,-432 135.308,-438 135.308,-444 135.308,-444 135.308,-456 135.308,-456 135.308,-462 129.308,-468 123.308,-468"/>
<text text-anchor="middle" x="81.808" y="-453" font-family="sans" font-size="10.00" fill="#000000">merge_rep</text>
<text text-anchor="middle" x="81.808" y="-442" font-family="sans" font-size="10.00" fill="#000000">sample: AK4503&#45;6</text>
</g>
<!-- 6&#45;&gt;5 -->
<g id="edge17" class="edge">
<title>6&#45;&gt;5</title>
<path fill="none" stroke="#c0c0c0" stroke-width="2" d="M88.6213,-431.8314C91.5724,-423.9617 95.0938,-414.5712 98.363,-405.8533"/>
<polygon fill="#c0c0c0" stroke="#c0c0c0" stroke-width="2" points="101.6689,-407.0055 101.9031,-396.4133 95.1146,-404.5476 101.6689,-407.0055"/>
</g>
<!-- 6&#45;&gt;18 -->
<g id="edge28" class="edge">
<title>6&#45;&gt;18</title>
<path fill="none" stroke="#c0c0c0" stroke-width="2" d="M78.2618,-431.7623C73.465,-407.0928 64.8641,-362.8598 59.2472,-333.9731"/>
<polygon fill="#c0c0c0" stroke="#c0c0c0" stroke-width="2" points="62.6699,-333.2377 57.3255,-324.0896 55.7986,-334.5738 62.6699,-333.2377"/>
</g>
<!-- 7 -->
<g id="node8" class="node">
<title>7</title>
<path fill="none" stroke="#56d8b9" stroke-width="2" stroke-dasharray="5,2" d="M376.808,-396C376.808,-396 290.808,-396 290.808,-396 284.808,-396 278.808,-390 278.808,-384 278.808,-384 278.808,-372 278.808,-372 278.808,-366 284.808,-360 290.808,-360 290.808,-360 376.808,-360 376.808,-360 382.808,-360 388.808,-366 388.808,-372 388.808,-372 388.808,-384 388.808,-384 388.808,-390 382.808,-396 376.808,-396"/>
<text text-anchor="middle" x="333.808" y="-375.5" font-family="sans" font-size="10.00" fill="#000000">build_abundant_db</text>
</g>
<!-- 7&#45;&gt;4 -->
<g id="edge16" class="edge">
<title>7&#45;&gt;4</title>
<path fill="none" stroke="#c0c0c0" stroke-width="2" d="M299.9942,-359.8314C282.5373,-350.4516 261.0594,-338.9112 242.4728,-328.9244"/>
<polygon fill="#c0c0c0" stroke="#c0c0c0" stroke-width="2" points="244.0766,-325.8129 233.6111,-324.1628 240.7634,-331.9792 244.0766,-325.8129"/>
</g>
<!-- 10 -->
<g id="node11" class="node">
<title>10</title>
<path fill="none" stroke="#d87d56" stroke-width="2" stroke-dasharray="5,2" d="M375.808,-324C375.808,-324 291.808,-324 291.808,-324 285.808,-324 279.808,-318 279.808,-312 279.808,-312 279.808,-300 279.808,-300 279.808,-294 285.808,-288 291.808,-288 291.808,-288 375.808,-288 375.808,-288 381.808,-288 387.808,-294 387.808,-300 387.808,-300 387.808,-312 387.808,-312 387.808,-318 381.808,-324 375.808,-324"/>
<text text-anchor="middle" x="333.808" y="-303.5" font-family="sans" font-size="10.00" fill="#000000">rm_abundant_rnas</text>
</g>
<!-- 7&#45;&gt;10 -->
<g id="edge21" class="edge">
<title>7&#45;&gt;10</title>
<path fill="none" stroke="#c0c0c0" stroke-width="2" d="M333.808,-359.8314C333.808,-352.131 333.808,-342.9743 333.808,-334.4166"/>
<polygon fill="#c0c0c0" stroke="#c0c0c0" stroke-width="2" points="337.3081,-334.4132 333.808,-324.4133 330.3081,-334.4133 337.3081,-334.4132"/>
</g>
<!-- 15 -->
<g id="node16" class="node">
<title>15</title>
<path fill="none" stroke="#d87d56" stroke-width="2" stroke-dasharray="5,2" d="M516.808,-324C516.808,-324 432.808,-324 432.808,-324 426.808,-324 420.808,-318 420.808,-312 420.808,-312 420.808,-300 420.808,-300 420.808,-294 426.808,-288 432.808,-288 432.808,-288 516.808,-288 516.808,-288 522.808,-288 528.808,-294 528.808,-300 528.808,-300 528.808,-312 528.808,-312 528.808,-318 522.808,-324 516.808,-324"/>
<text text-anchor="middle" x="474.808" y="-303.5" font-family="sans" font-size="10.00" fill="#000000">rm_abundant_rnas</text>
</g>
<!-- 7&#45;&gt;15 -->
<g id="edge26" class="edge">
<title>7&#45;&gt;15</title>
<path fill="none" stroke="#c0c0c0" stroke-width="2" d="M369.3883,-359.8314C387.8405,-350.4089 410.5625,-338.8062 430.181,-328.7883"/>
<polygon fill="#c0c0c0" stroke="#c0c0c0" stroke-width="2" points="431.9248,-331.8278 439.2392,-324.1628 428.7414,-325.5935 431.9248,-331.8278"/>
</g>
<!-- 8 -->
<g id="node9" class="node">
<title>8</title>
<path fill="none" stroke="#68d856" stroke-width="2" d="M373.308,-180C373.308,-180 288.308,-180 288.308,-180 282.308,-180 276.308,-174 276.308,-168 276.308,-168 276.308,-156 276.308,-156 276.308,-150 282.308,-144 288.308,-144 288.308,-144 373.308,-144 373.308,-144 379.308,-144 385.308,-150 385.308,-156 385.308,-156 385.308,-168 385.308,-168 385.308,-174 379.308,-180 373.308,-180"/>
<text text-anchor="middle" x="330.808" y="-159.5" font-family="sans" font-size="10.00" fill="#000000">remove_duplicates</text>
</g>
<!-- 8&#45;&gt;1 -->
<g id="edge11" class="edge">
<title>8&#45;&gt;1</title>
<path fill="none" stroke="#c0c0c0" stroke-width="2" d="M370.3995,-143.9022C390.8601,-134.4737 416.4074,-122.5854 446.6337,-108.0326"/>
<polygon fill="#c0c0c0" stroke="#c0c0c0" stroke-width="2" points="448.2378,-111.1447 455.7212,-103.6448 445.1941,-104.8411 448.2378,-111.1447"/>
</g>
<!-- 8&#45;&gt;22 -->
<g id="edge35" class="edge">
<title>8&#45;&gt;22</title>
<path fill="none" stroke="#c0c0c0" stroke-width="2" d="M297.7512,-143.8314C280.8403,-134.5368 260.0695,-123.1208 242.0139,-113.1971"/>
<polygon fill="#c0c0c0" stroke="#c0c0c0" stroke-width="2" points="243.3037,-109.9122 232.8543,-108.1628 239.932,-116.0468 243.3037,-109.9122"/>
</g>
<!-- 24 -->
<g id="node25" class="node">
<title>24</title>
<path fill="none" stroke="#56d86b" stroke-width="2" d="M353.308,-108C353.308,-108 298.308,-108 298.308,-108 292.308,-108 286.308,-102 286.308,-96 286.308,-96 286.308,-84 286.308,-84 286.308,-78 292.308,-72 298.308,-72 298.308,-72 353.308,-72 353.308,-72 359.308,-72 365.308,-78 365.308,-84 365.308,-84 365.308,-96 365.308,-96 365.308,-102 359.308,-108 353.308,-108"/>
<text text-anchor="middle" x="325.808" y="-87.5" font-family="sans" font-size="10.00" fill="#000000">make_bigwig</text>
</g>
<!-- 8&#45;&gt;24 -->
<g id="edge38" class="edge">
<title>8&#45;&gt;24</title>
<path fill="none" stroke="#c0c0c0" stroke-width="2" d="M329.5463,-143.8314C329.0116,-136.131 328.3757,-126.9743 327.7814,-118.4166"/>
<polygon fill="#c0c0c0" stroke="#c0c0c0" stroke-width="2" points="331.2712,-118.1467 327.0867,-108.4133 324.288,-118.6317 331.2712,-118.1467"/>
</g>
<!-- 9 -->
<g id="node10" class="node">
<title>9</title>
<path fill="none" stroke="#d85656" stroke-width="2" d="M355.808,-252C355.808,-252 309.808,-252 309.808,-252 303.808,-252 297.808,-246 297.808,-240 297.808,-240 297.808,-228 297.808,-228 297.808,-222 303.808,-216 309.808,-216 309.808,-216 355.808,-216 355.808,-216 361.808,-216 367.808,-222 367.808,-228 367.808,-228 367.808,-240 367.808,-240 367.808,-246 361.808,-252 355.808,-252"/>
<text text-anchor="middle" x="332.808" y="-231.5" font-family="sans" font-size="10.00" fill="#000000">map_reads</text>
</g>
<!-- 9&#45;&gt;8 -->
<g id="edge18" class="edge">
<title>9&#45;&gt;8</title>
<path fill="none" stroke="#c0c0c0" stroke-width="2" d="M332.3033,-215.8314C332.0894,-208.131 331.8351,-198.9743 331.5974,-190.4166"/>
<polygon fill="#c0c0c0" stroke="#c0c0c0" stroke-width="2" points="335.0959,-190.3122 331.3195,-180.4133 328.0986,-190.5066 335.0959,-190.3122"/>
</g>
<!-- 10&#45;&gt;9 -->
<g id="edge19" class="edge">
<title>10&#45;&gt;9</title>
<path fill="none" stroke="#c0c0c0" stroke-width="2" d="M333.5557,-287.8314C333.4487,-280.131 333.3216,-270.9743 333.2027,-262.4166"/>
<polygon fill="#c0c0c0" stroke="#c0c0c0" stroke-width="2" points="336.7024,-262.3637 333.0638,-252.4133 329.7031,-262.4609 336.7024,-262.3637"/>
</g>
<!-- 11 -->
<g id="node12" class="node">
<title>11</title>
<path fill="none" stroke="#56d0d8" stroke-width="2" stroke-dasharray="5,2" d="M528.808,-396C528.808,-396 498.808,-396 498.808,-396 492.808,-396 486.808,-390 486.808,-384 486.808,-384 486.808,-372 486.808,-372 486.808,-366 492.808,-360 498.808,-360 498.808,-360 528.808,-360 528.808,-360 534.808,-360 540.808,-366 540.808,-372 540.808,-372 540.808,-384 540.808,-384 540.808,-390 534.808,-396 528.808,-396"/>
<text text-anchor="middle" x="513.808" y="-375.5" font-family="sans" font-size="10.00" fill="#000000">trim</text>
</g>
<!-- 11&#45;&gt;10 -->
<g id="edge20" class="edge">
<title>11&#45;&gt;10</title>
<path fill="none" stroke="#c0c0c0" stroke-width="2" d="M486.4699,-367.0647C460.5113,-356.6813 420.7457,-340.7751 388.3073,-327.7997"/>
<polygon fill="#c0c0c0" stroke="#c0c0c0" stroke-width="2" points="389.5203,-324.5153 378.9356,-324.051 386.9205,-331.0147 389.5203,-324.5153"/>
</g>
<!-- 19 -->
<g id="node20" class="node">
<title>19</title>
<path fill="none" stroke="#56a9d8" stroke-width="2" stroke-dasharray="5,2" d="M588.808,-324C588.808,-324 558.808,-324 558.808,-324 552.808,-324 546.808,-318 546.808,-312 546.808,-312 546.808,-300 546.808,-300 546.808,-294 552.808,-288 558.808,-288 558.808,-288 588.808,-288 588.808,-288 594.808,-288 600.808,-294 600.808,-300 600.808,-300 600.808,-312 600.808,-312 600.808,-318 594.808,-324 588.808,-324"/>
<text text-anchor="middle" x="573.808" y="-303.5" font-family="sans" font-size="10.00" fill="#000000">fastqc</text>
</g>
<!-- 11&#45;&gt;19 -->
<g id="edge31" class="edge">
<title>11&#45;&gt;19</title>
<path fill="none" stroke="#c0c0c0" stroke-width="2" d="M528.9486,-359.8314C535.9297,-351.454 544.3471,-341.3531 551.9956,-332.1749"/>
<polygon fill="#c0c0c0" stroke="#c0c0c0" stroke-width="2" points="554.7505,-334.3362 558.4636,-324.4133 549.373,-329.8548 554.7505,-334.3362"/>
</g>
<!-- 12 -->
<g id="node13" class="node">
<title>12</title>
<path fill="none" stroke="#b6d856" stroke-width="2" stroke-dasharray="5,2" d="M566.308,-468C566.308,-468 477.308,-468 477.308,-468 471.308,-468 465.308,-462 465.308,-456 465.308,-456 465.308,-444 465.308,-444 465.308,-438 471.308,-432 477.308,-432 477.308,-432 566.308,-432 566.308,-432 572.308,-432 578.308,-438 578.308,-444 578.308,-444 578.308,-456 578.308,-456 578.308,-462 572.308,-468 566.308,-468"/>
<text text-anchor="middle" x="521.808" y="-453" font-family="sans" font-size="10.00" fill="#000000">merge_rep</text>
<text text-anchor="middle" x="521.808" y="-442" font-family="sans" font-size="10.00" fill="#000000">sample: AK5404&#45;43</text>
</g>
<!-- 12&#45;&gt;11 -->
<g id="edge22" class="edge">
<title>12&#45;&gt;11</title>
<path fill="none" stroke="#c0c0c0" stroke-width="2" d="M519.7893,-431.8314C518.9337,-424.131 517.9163,-414.9743 516.9654,-406.4166"/>
<polygon fill="#c0c0c0" stroke="#c0c0c0" stroke-width="2" points="520.4369,-405.9656 515.8539,-396.4133 513.4798,-406.7386 520.4369,-405.9656"/>
</g>
<!-- 12&#45;&gt;19 -->
<g id="edge30" class="edge">
<title>12&#45;&gt;19</title>
<path fill="none" stroke="#c0c0c0" stroke-width="2" d="M532.4187,-431.9664C538.1448,-421.6834 545.0028,-408.4081 549.808,-396 557.6188,-375.8309 563.8191,-352.17 567.9596,-334.1715"/>
<polygon fill="#c0c0c0" stroke="#c0c0c0" stroke-width="2" points="571.401,-334.8192 570.1561,-324.2977 564.5681,-333.2991 571.401,-334.8192"/>
</g>
<!-- 13 -->
<g id="node14" class="node">
<title>13</title>
<path fill="none" stroke="#68d856" stroke-width="2" stroke-dasharray="5,2" d="M525.308,-180C525.308,-180 440.308,-180 440.308,-180 434.308,-180 428.308,-174 428.308,-168 428.308,-168 428.308,-156 428.308,-156 428.308,-150 434.308,-144 440.308,-144 440.308,-144 525.308,-144 525.308,-144 531.308,-144 537.308,-150 537.308,-156 537.308,-156 537.308,-168 537.308,-168 537.308,-174 531.308,-180 525.308,-180"/>
<text text-anchor="middle" x="482.808" y="-159.5" font-family="sans" font-size="10.00" fill="#000000">remove_duplicates</text>
</g>
<!-- 13&#45;&gt;1 -->
<g id="edge12" class="edge">
<title>13&#45;&gt;1</title>
<path fill="none" stroke="#c0c0c0" stroke-width="2" d="M482.808,-143.8314C482.808,-136.131 482.808,-126.9743 482.808,-118.4166"/>
<polygon fill="#c0c0c0" stroke="#c0c0c0" stroke-width="2" points="486.3081,-118.4132 482.808,-108.4133 479.3081,-118.4133 486.3081,-118.4132"/>
</g>
<!-- 13&#45;&gt;22 -->
<g id="edge36" class="edge">
<title>13&#45;&gt;22</title>
<path fill="none" stroke="#c0c0c0" stroke-width="2" d="M428.2428,-148.1177C385.4921,-137.2412 325.4563,-121.967 277.6597,-109.8068"/>
<polygon fill="#c0c0c0" stroke="#c0c0c0" stroke-width="2" points="278.5192,-106.414 267.965,-107.3403 276.7933,-113.1979 278.5192,-106.414"/>
</g>
<!-- 25 -->
<g id="node26" class="node">
<title>25</title>
<path fill="none" stroke="#56d86b" stroke-width="2" stroke-dasharray="5,2" d="M595.308,-108C595.308,-108 540.308,-108 540.308,-108 534.308,-108 528.308,-102 528.308,-96 528.308,-96 528.308,-84 528.308,-84 528.308,-78 534.308,-72 540.308,-72 540.308,-72 595.308,-72 595.308,-72 601.308,-72 607.308,-78 607.308,-84 607.308,-84 607.308,-96 607.308,-96 607.308,-102 601.308,-108 595.308,-108"/>
<text text-anchor="middle" x="567.808" y="-87.5" font-family="sans" font-size="10.00" fill="#000000">make_bigwig</text>
</g>
<!-- 13&#45;&gt;25 -->
<g id="edge39" class="edge">
<title>13&#45;&gt;25</title>
<path fill="none" stroke="#c0c0c0" stroke-width="2" d="M504.2571,-143.8314C514.6258,-135.0485 527.2309,-124.3712 538.4726,-114.8489"/>
<polygon fill="#c0c0c0" stroke="#c0c0c0" stroke-width="2" points="540.9975,-117.297 546.3658,-108.1628 536.4731,-111.9556 540.9975,-117.297"/>
</g>
<!-- 14 -->
<g id="node15" class="node">
<title>14</title>
<path fill="none" stroke="#d85656" stroke-width="2" stroke-dasharray="5,2" d="M498.808,-252C498.808,-252 452.808,-252 452.808,-252 446.808,-252 440.808,-246 440.808,-240 440.808,-240 440.808,-228 440.808,-228 440.808,-222 446.808,-216 452.808,-216 452.808,-216 498.808,-216 498.808,-216 504.808,-216 510.808,-222 510.808,-228 510.808,-228 510.808,-240 510.808,-240 510.808,-246 504.808,-252 498.808,-252"/>
<text text-anchor="middle" x="475.808" y="-231.5" font-family="sans" font-size="10.00" fill="#000000">map_reads</text>
</g>
<!-- 14&#45;&gt;13 -->
<g id="edge23" class="edge">
<title>14&#45;&gt;13</title>
<path fill="none" stroke="#c0c0c0" stroke-width="2" d="M477.5744,-215.8314C478.3231,-208.131 479.2133,-198.9743 480.0453,-190.4166"/>
<polygon fill="#c0c0c0" stroke="#c0c0c0" stroke-width="2" points="483.5337,-190.7051 481.0178,-180.4133 476.5665,-190.0276 483.5337,-190.7051"/>
</g>
<!-- 15&#45;&gt;14 -->
<g id="edge24" class="edge">
<title>15&#45;&gt;14</title>
<path fill="none" stroke="#c0c0c0" stroke-width="2" d="M475.0604,-287.8314C475.1673,-280.131 475.2945,-270.9743 475.4134,-262.4166"/>
<polygon fill="#c0c0c0" stroke="#c0c0c0" stroke-width="2" points="478.913,-262.4609 475.5523,-252.4133 471.9137,-262.3637 478.913,-262.4609"/>
</g>
<!-- 16 -->
<g id="node17" class="node">
<title>16</title>
<path fill="none" stroke="#56d0d8" stroke-width="2" stroke-dasharray="5,2" d="M638.808,-396C638.808,-396 608.808,-396 608.808,-396 602.808,-396 596.808,-390 596.808,-384 596.808,-384 596.808,-372 596.808,-372 596.808,-366 602.808,-360 608.808,-360 608.808,-360 638.808,-360 638.808,-360 644.808,-360 650.808,-366 650.808,-372 650.808,-372 650.808,-384 650.808,-384 650.808,-390 644.808,-396 638.808,-396"/>
<text text-anchor="middle" x="623.808" y="-375.5" font-family="sans" font-size="10.00" fill="#000000">trim</text>
</g>
<!-- 16&#45;&gt;15 -->
<g id="edge25" class="edge">
<title>16&#45;&gt;15</title>
<path fill="none" stroke="#c0c0c0" stroke-width="2" d="M596.4791,-364.7941C575.4711,-354.6426 545.9619,-340.3831 521.2661,-328.4495"/>
<polygon fill="#c0c0c0" stroke="#c0c0c0" stroke-width="2" points="522.5914,-325.2028 512.0646,-324.0032 519.5457,-331.5055 522.5914,-325.2028"/>
</g>
<!-- 20 -->
<g id="node21" class="node">
<title>20</title>
<path fill="none" stroke="#56a9d8" stroke-width="2" stroke-dasharray="5,2" d="M688.808,-324C688.808,-324 658.808,-324 658.808,-324 652.808,-324 646.808,-318 646.808,-312 646.808,-312 646.808,-300 646.808,-300 646.808,-294 652.808,-288 658.808,-288 658.808,-288 688.808,-288 688.808,-288 694.808,-288 700.808,-294 700.808,-300 700.808,-300 700.808,-312 700.808,-312 700.808,-318 694.808,-324 688.808,-324"/>
<text text-anchor="middle" x="673.808" y="-303.5" font-family="sans" font-size="10.00" fill="#000000">fastqc</text>
</g>
<!-- 16&#45;&gt;20 -->
<g id="edge33" class="edge">
<title>16&#45;&gt;20</title>
<path fill="none" stroke="#c0c0c0" stroke-width="2" d="M636.4251,-359.8314C642.1252,-351.6232 648.9743,-341.7606 655.2439,-332.7323"/>
<polygon fill="#c0c0c0" stroke="#c0c0c0" stroke-width="2" points="658.1918,-334.6234 661.021,-324.4133 652.4422,-330.6306 658.1918,-334.6234"/>
</g>
<!-- 17 -->
<g id="node18" class="node">
<title>17</title>
<path fill="none" stroke="#b6d856" stroke-width="2" stroke-dasharray="5,2" d="M714.308,-468C714.308,-468 625.308,-468 625.308,-468 619.308,-468 613.308,-462 613.308,-456 613.308,-456 613.308,-444 613.308,-444 613.308,-438 619.308,-432 625.308,-432 625.308,-432 714.308,-432 714.308,-432 720.308,-432 726.308,-438 726.308,-444 726.308,-444 726.308,-456 726.308,-456 726.308,-462 720.308,-468 714.308,-468"/>
<text text-anchor="middle" x="669.808" y="-453" font-family="sans" font-size="10.00" fill="#000000">merge_rep</text>
<text text-anchor="middle" x="669.808" y="-442" font-family="sans" font-size="10.00" fill="#000000">sample: AK5404&#45;47</text>
</g>
<!-- 17&#45;&gt;16 -->
<g id="edge27" class="edge">
<title>17&#45;&gt;16</title>
<path fill="none" stroke="#c0c0c0" stroke-width="2" d="M658.2003,-431.8314C653.0103,-423.7079 646.7849,-413.9637 641.0656,-405.0118"/>
<polygon fill="#c0c0c0" stroke="#c0c0c0" stroke-width="2" points="643.9054,-402.9559 635.5721,-396.4133 638.0066,-406.7246 643.9054,-402.9559"/>
</g>
<!-- 17&#45;&gt;20 -->
<g id="edge32" class="edge">
<title>17&#45;&gt;20</title>
<path fill="none" stroke="#c0c0c0" stroke-width="2" d="M670.3146,-431.7623C670.9969,-407.201 672.2178,-363.2474 673.0204,-334.3541"/>
<polygon fill="#c0c0c0" stroke="#c0c0c0" stroke-width="2" points="676.5264,-334.183 673.3055,-324.0896 669.5291,-333.9885 676.5264,-334.183"/>
</g>
<!-- 18&#45;&gt;0 -->
<g id="edge2" class="edge">
<title>18&#45;&gt;0</title>
<path fill="none" stroke="#c0c0c0" stroke-width="2" d="M43.4096,-287.8069C20.2144,-244.5568 -29.5957,-134.5444 24.808,-72 47.5784,-45.8224 281.6175,-26.9295 373.7921,-20.4511"/>
<polygon fill="#c0c0c0" stroke="#c0c0c0" stroke-width="2" points="374.0628,-23.9408 383.7969,-19.7577 373.5788,-16.9576 374.0628,-23.9408"/>
</g>
<!-- 19&#45;&gt;0 -->
<g id="edge3" class="edge">
<title>19&#45;&gt;0</title>
<path fill="none" stroke="#c0c0c0" stroke-width="2" d="M585.5447,-287.9747C611.5394,-245.5606 667.7806,-138.0565 616.808,-72 596.374,-45.5191 501.9181,-29.4953 448.2835,-22.3752"/>
<polygon fill="#c0c0c0" stroke="#c0c0c0" stroke-width="2" points="448.4998,-18.8743 438.1349,-21.0695 447.6065,-25.8171 448.4998,-18.8743"/>
</g>
<!-- 20&#45;&gt;0 -->
<g id="edge4" class="edge">
<title>20&#45;&gt;0</title>
<path fill="none" stroke="#c0c0c0" stroke-width="2" d="M677.1851,-287.9576C684.1826,-244.558 695.2406,-133.389 638.808,-72 613.4098,-44.3711 506.1776,-28.517 448.2718,-21.8172"/>
<polygon fill="#c0c0c0" stroke="#c0c0c0" stroke-width="2" points="448.3924,-18.3089 438.0644,-20.672 447.6118,-25.2652 448.3924,-18.3089"/>
</g>
<!-- 21 -->
<g id="node22" class="node">
<title>21</title>
<path fill="none" stroke="#8fd856" stroke-width="2" d="M425.808,-108C425.808,-108 395.808,-108 395.808,-108 389.808,-108 383.808,-102 383.808,-96 383.808,-96 383.808,-84 383.808,-84 383.808,-78 389.808,-72 395.808,-72 395.808,-72 425.808,-72 425.808,-72 431.808,-72 437.808,-78 437.808,-84 437.808,-84 437.808,-96 437.808,-96 437.808,-102 431.808,-108 425.808,-108"/>
<text text-anchor="middle" x="410.808" y="-87.5" font-family="sans" font-size="10.00" fill="#000000">multiqc</text>
</g>
<!-- 21&#45;&gt;0 -->
<g id="edge5" class="edge">
<title>21&#45;&gt;0</title>
<path fill="none" stroke="#c0c0c0" stroke-width="2" d="M410.808,-71.8314C410.808,-64.131 410.808,-54.9743 410.808,-46.4166"/>
<polygon fill="#c0c0c0" stroke="#c0c0c0" stroke-width="2" points="414.3081,-46.4132 410.808,-36.4133 407.3081,-46.4133 414.3081,-46.4132"/>
</g>
<!-- 22&#45;&gt;0 -->
<g id="edge6" class="edge">
<title>22&#45;&gt;0</title>
<path fill="none" stroke="#c0c0c0" stroke-width="2" d="M252.7799,-71.9243C290.5048,-59.0513 340.2604,-42.0731 373.7804,-30.635"/>
<polygon fill="#c0c0c0" stroke="#c0c0c0" stroke-width="2" points="375.2968,-33.8158 383.6306,-27.2738 373.0361,-27.1909 375.2968,-33.8158"/>
</g>
<!-- 23&#45;&gt;0 -->
<g id="edge7" class="edge">
<title>23&#45;&gt;0</title>
<path fill="none" stroke="#c0c0c0" stroke-width="2" d="M113.4734,-74.8001C116.612,-73.7904 119.7499,-72.8421 122.808,-72 211.2746,-47.6403 318.0526,-30.7997 373.4189,-22.9757"/>
<polygon fill="#c0c0c0" stroke="#c0c0c0" stroke-width="2" points="374.0434,-26.4226 383.4646,-21.5757 373.0772,-19.4896 374.0434,-26.4226"/>
</g>
<!-- 24&#45;&gt;0 -->
<g id="edge8" class="edge">
<title>24&#45;&gt;0</title>
<path fill="none" stroke="#c0c0c0" stroke-width="2" d="M347.2571,-71.8314C357.6258,-63.0485 370.2309,-52.3712 381.4726,-42.8489"/>
<polygon fill="#c0c0c0" stroke="#c0c0c0" stroke-width="2" points="383.9975,-45.297 389.3658,-36.1628 379.4731,-39.9556 383.9975,-45.297"/>
</g>
<!-- 25&#45;&gt;0 -->
<g id="edge9" class="edge">
<title>25&#45;&gt;0</title>
<path fill="none" stroke="#c0c0c0" stroke-width="2" d="M528.1903,-71.8314C503.33,-60.4305 471.5092,-45.8375 447.2717,-34.7222"/>
<polygon fill="#c0c0c0" stroke="#c0c0c0" stroke-width="2" points="448.6032,-31.4824 438.0545,-30.4952 445.6852,-37.8452 448.6032,-31.4824"/>
</g>
</g>
</svg>
